<svg width="33" height="33" viewBox="0 0 33 33" fill="none" xmlns="http://www.w3.org/2000/svg">
<path d="M17.6956 23.7384C18.53 23.7384 19.2063 23.062 19.2063 22.2277C19.2063 21.3933 18.53 20.717 17.6956 20.717C16.8613 20.717 16.1849 21.3933 16.1849 22.2277C16.1849 23.062 16.8613 23.7384 17.6956 23.7384Z" stroke="#F26422" stroke-linecap="round" stroke-linejoin="round"/>
<path d="M19.9863 19.1372V9.30292H15.4049V19.1767C14.7505 19.6591 14.265 20.3358 14.0178 21.1103C13.7706 21.8848 13.7742 22.7176 14.0281 23.49C14.2819 24.2623 14.7732 24.9348 15.4318 25.4115C16.0903 25.8883 16.8826 26.1449 17.6956 26.1449C18.5086 26.1449 19.3009 25.8883 19.9594 25.4115C20.618 24.9348 21.1093 24.2623 21.3632 23.49C21.6171 22.7176 21.6207 21.8848 21.3734 21.1103C21.1262 20.3358 20.6408 19.6591 19.9863 19.1767V19.1372Z" stroke="#3C3C3B" stroke-linecap="round" stroke-linejoin="round"/>
<path d="M17.6957 20.6084V14.3978" stroke="#F26422" stroke-linecap="round" stroke-linejoin="round"/>
<path d="M32.5001 17.6956C32.5001 25.8719 25.8719 32.5 17.6957 32.5C9.51949 32.5 2.89136 25.8719 2.89136 17.6956C2.89136 9.51943 9.51949 2.8913 17.6957 2.8913C25.8719 2.8913 32.5001 9.51943 32.5001 17.6956Z" stroke="#F26422" stroke-linecap="round" stroke-linejoin="round"/>
<circle cx="6.56522" cy="6.56522" r="5.56522" fill="white" stroke="#F26422"/>
<path d="M7.88715 9C7.96415 9 8.01315 8.944 8.01315 8.867V8.272C8.01315 8.195 7.96415 8.146 7.88715 8.146H6.17215C7.28515 7.313 7.99915 6.403 7.99915 5.486C7.99915 4.555 7.32015 4.016 6.24915 4.016C5.78015 4.016 5.32515 4.121 4.96815 4.296C4.90515 4.324 4.87015 4.373 4.87715 4.45L4.91915 5.052C4.92615 5.143 5.02415 5.199 5.11515 5.143C5.40215 4.982 5.76615 4.884 6.09515 4.884C6.59215 4.884 6.89315 5.087 6.89315 5.507C6.89315 6.389 5.76615 7.348 4.79315 8.153C4.74415 8.188 4.71615 8.244 4.71615 8.307V8.867C4.71615 8.944 4.77215 9 4.84915 9H7.88715Z" fill="#F26422"/>
</svg>
