<svg width="33" height="33" viewBox="0 0 33 33" fill="none" xmlns="http://www.w3.org/2000/svg">
<circle cx="17.6957" cy="17.6956" r="14.8043" stroke="#F26422"/>
<path d="M15.2273 25.101V19.1767M15.2273 19.1767V10.2903H18.6831C21.137 10.2903 23.1263 12.2796 23.1263 14.7335V14.7335C23.1263 17.1875 21.137 19.1767 18.6831 19.1767H15.2273Z" stroke="#3C3C3B" stroke-linecap="round" stroke-linejoin="round"/>
<line x1="12.7651" y1="21.6389" x2="20.6515" y2="21.6389" stroke="#F26422" stroke-linecap="round" stroke-linejoin="round"/>
<circle cx="6.56522" cy="6.56522" r="5.56522" fill="white" stroke="#F26422"/>
<path d="M6.71815 8.048V8.867C6.71815 8.944 6.77415 9 6.85115 9H7.68415C7.76115 9 7.81015 8.944 7.81015 8.867V8.048H8.20915C8.27215 8.048 8.33515 7.992 8.33515 7.915V7.32C8.33515 7.243 8.27215 7.194 8.20915 7.194H7.81015V4.226C7.81015 4.163 7.76115 4.1 7.68415 4.1H6.69715C6.63415 4.1 6.58515 4.121 6.55015 4.17L4.56215 7.061C4.50615 7.145 4.47115 7.229 4.47115 7.369V7.915C4.47115 7.992 4.52715 8.048 4.60415 8.048H6.71815ZM6.71815 5.423V7.194H5.50715L6.71815 5.423Z" fill="#F26422"/>
</svg>
