<svg width="33" height="33" viewBox="0 0 33 33" fill="none" xmlns="http://www.w3.org/2000/svg">
<circle cx="17.6957" cy="17.6956" r="14.8043" stroke="#F26422"/>
<path d="M9.30298 17.046C16.7369 17.046 15.4684 9.83917 24.1414 11.5365" stroke="#3C3C3B" stroke-miterlimit="3.8637" stroke-linecap="round" stroke-linejoin="round"/>
<path d="M10.2765 20.5798C17.7105 20.5798 16.442 13.373 25.1149 15.0703" stroke="#F26422" stroke-miterlimit="3.8637" stroke-linecap="round" stroke-linejoin="round"/>
<path d="M11.25 24.1136C18.684 24.1136 17.4155 16.9068 26.0884 18.6042" stroke="#3C3C3B" stroke-miterlimit="3.8637" stroke-linecap="round" stroke-linejoin="round"/>
<circle cx="6.56522" cy="6.56522" r="5.56522" fill="white" stroke="#F26422"/>
<path d="M5.35315 6.711C5.35315 6.788 5.40215 6.837 5.47915 6.844C6.49415 6.865 6.95615 7.103 6.95615 7.635C6.95615 7.999 6.64815 8.216 6.06715 8.216C5.69615 8.216 5.31115 8.132 4.99615 7.971C4.90515 7.922 4.81415 7.964 4.80715 8.055L4.75115 8.741C4.74415 8.804 4.77915 8.853 4.84215 8.881C5.24115 9.021 5.70315 9.084 6.17215 9.084C7.39015 9.084 8.06215 8.503 8.06215 7.649C8.06215 7.152 7.81015 6.69 7.18715 6.445C7.78215 6.221 7.99215 5.808 7.99215 5.304C7.99215 4.548 7.37615 4.016 6.23515 4.016C5.76615 4.016 5.32515 4.107 4.96115 4.254C4.88415 4.282 4.84915 4.338 4.85615 4.422L4.90515 5.01C4.91215 5.101 5.00315 5.136 5.08715 5.101C5.40215 4.954 5.77315 4.884 6.10915 4.884C6.63415 4.884 6.88615 5.073 6.88615 5.381C6.88615 5.829 6.47315 6.025 5.47915 6.046C5.40215 6.046 5.35315 6.109 5.35315 6.172V6.711Z" fill="#F26422"/>
</svg>
